<?xml version="1.0" standalone="no"?>
<!DOCTYPE svg PUBLIC "-//W3C//DTD SVG 20010904//EN"
 "http://www.w3.org/TR/2001/REC-SVG-20010904/DTD/svg10.dtd">
<svg version="1.0" xmlns="http://www.w3.org/2000/svg"
 width="303.000000pt" height="257.000000pt" viewBox="0 0 303.000000 257.000000"
 preserveAspectRatio="xMidYMid meet">

<g transform="translate(0.000000,257.000000) scale(0.100000,-0.100000)"
fill="#000000" stroke="none">
<path d="M1961 2125 c-7 -17 -16 -56 -18 -87 -3 -32 -10 -55 -15 -52 -5 3 -2
-11 6 -31 9 -21 16 -39 16 -41 0 -9 37 -3 48 8 6 6 22 12 35 13 22 0 23 -2 14
-22 -6 -13 -7 -26 -3 -30 4 -4 38 -9 77 -11 62 -4 74 -2 110 23 45 29 45 37
-4 41 -129 12 -147 16 -147 36 0 20 -28 22 -42 4 -4 -6 -9 3 -13 20 -12 56
-28 104 -36 104 -4 0 -9 12 -11 27 l-3 28 -14 -30z"/>
<path d="M2180 2040 c-75 -75 -77 -91 -5 -37 24 17 56 40 70 50 26 18 33 41
15 52 -5 3 -41 -26 -80 -65z"/>
<path d="M2029 1841 l5 -36 6 30 c5 28 6 29 18 10 6 -11 12 -14 12 -7 0 8 9
10 28 6 42 -10 19 6 -30 21 l-44 13 5 -37z"/>
<path d="M1870 1747 c-69 -66 -111 -110 -95 -99 45 32 231 209 225 215 -3 2
-61 -49 -130 -116z"/>
<path d="M1379 1741 c-31 -43 -58 -68 -98 -90 -64 -35 -111 -70 -95 -71 6 0
17 6 23 14 11 13 104 66 116 66 3 0 -5 -17 -18 -37 -43 -70 -89 -153 -83 -153
3 0 27 36 53 80 43 72 49 79 61 63 12 -17 15 -16 33 9 11 15 19 29 18 30 -8 9
52 58 72 59 18 1 19 2 6 6 -17 4 -17 6 -1 31 16 24 16 26 -2 39 -30 22 -42 16
-85 -46z"/>
<path d="M1524 1707 c16 -12 17 -17 6 -38 -7 -13 -24 -37 -37 -54 -13 -16 -24
-34 -24 -40 0 -5 -8 -19 -17 -29 -14 -16 -12 -16 13 2 17 12 39 36 50 52 11
16 23 30 28 30 4 0 7 15 7 33 0 33 -15 57 -34 57 -5 0 -2 -6 8 -13z"/>
<path d="M1896 1573 c-3 -21 -8 -65 -10 -98 -3 -33 -8 -87 -11 -120 -34 -373
-43 -489 -39 -497 7 -11 143 -6 153 6 5 6 16 108 25 226 10 118 19 216 21 218
6 6 22 -31 54 -127 18 -52 39 -101 49 -108 9 -8 11 -12 5 -8 -17 8 -17 12 16
-86 44 -128 37 -119 93 -119 27 0 47 4 44 9 -4 5 -2 11 3 13 4 1 41 97 81 213
40 116 75 212 77 214 8 10 12 -9 17 -79 22 -292 28 -356 31 -367 3 -9 29 -13
86 -13 l81 0 -6 38 c-3 20 -8 66 -10 102 -15 185 -47 540 -52 578 l-5 43 -90
-2 c-49 -1 -87 -5 -84 -9 3 -5 0 -10 -5 -12 -6 -2 -12 -10 -14 -18 -2 -8 -8
-26 -13 -40 -25 -58 -93 -235 -93 -241 0 -4 -12 -33 -26 -65 l-26 -59 -39 100
c-21 55 -42 107 -45 115 -4 8 -8 20 -9 25 -2 6 -12 33 -23 60 -11 28 -28 71
-38 98 l-17 47 -87 0 -88 0 -6 -37z"/>
<path d="M417 1577 c-23 -7 -35 -16 -30 -21 4 -5 3 -6 -4 -3 -19 11 -55 -8
-111 -58 -32 -29 -51 -53 -48 -62 3 -8 1 -11 -4 -8 -6 4 -25 -24 -42 -62 -29
-62 -32 -77 -32 -168 -1 -91 2 -106 31 -166 46 -100 151 -204 184 -183 8 4 9
3 5 -4 -4 -7 -2 -13 3 -13 16 -2 23 -5 46 -15 36 -16 176 -11 228 9 26 10 47
23 47 28 0 6 5 7 10 4 14 -8 94 71 85 84 -3 6 0 9 8 5 10 -3 22 10 38 43 20
40 24 66 26 151 l2 102 -169 0 -170 0 0 -65 0 -65 85 0 85 0 0 -31 c0 -69
-113 -139 -201 -124 -41 7 -123 71 -134 106 -4 10 -9 17 -13 15 -10 -6 -16 49
-15 136 1 69 4 81 33 125 18 26 41 54 51 61 10 7 24 18 31 25 7 6 36 14 65 15
61 4 130 -22 168 -65 24 -26 26 -27 36 -9 6 10 19 25 30 34 10 8 15 20 12 25
-3 6 -1 7 4 4 6 -4 18 2 27 12 16 17 15 20 -9 49 -30 36 -128 87 -146 76 -7
-4 -9 -3 -6 3 14 23 -140 30 -206 10z"/>
<path d="M1117 1533 c-99 -105 -147 -189 -147 -259 0 -42 43 -143 78 -182 11
-13 19 -29 16 -36 -6 -14 33 -52 43 -42 8 7 -23 65 -43 81 -30 24 -69 121 -70
175 -1 30 2 60 6 65 5 6 10 19 12 30 1 11 5 22 9 25 3 3 16 23 29 45 13 22 45
62 73 88 27 27 47 50 44 53 -2 3 -25 -17 -50 -43z"/>
<path d="M1389 1525 c-9 -23 -111 -106 -124 -102 -7 3 -16 -1 -19 -10 -4 -9
-9 -13 -13 -10 -3 4 -15 -5 -26 -19 -14 -18 -22 -22 -27 -14 -6 9 -10 6 -14
-8 -4 -11 -20 -25 -36 -31 -21 -7 -28 -15 -24 -25 3 -9 11 -16 16 -16 10 0 9
-7 -6 -55 -3 -11 2 -2 13 19 18 38 23 40 108 62 48 13 98 24 111 24 12 0 22 4
22 9 0 5 19 12 42 16 22 4 55 14 72 22 l31 14 -40 -5 c-22 -3 -50 -6 -63 -6
-13 0 -21 -3 -19 -7 3 -5 -9 -8 -26 -8 -18 0 -49 -4 -69 -8 -46 -10 -48 0 -4
33 67 51 126 103 126 112 0 5 -4 7 -9 4 -5 -4 -11 0 -13 6 -3 7 -6 9 -9 3z"/>
<path d="M1197 1423 l-18 -38 20 25 c18 22 28 50 18 50 -2 0 -11 -17 -20 -37z"/>
<path d="M1610 1390 c52 -4 104 -11 115 -14 l20 -8 -20 13 c-12 8 -58 14 -115
15 l-95 2 95 -8z"/>
<path d="M1770 1353 c0 -5 9 -18 20 -28 47 -43 47 -123 -1 -216 -11 -22 -16
-39 -12 -39 5 0 3 -4 -3 -8 -6 -4 -24 -27 -39 -52 -15 -25 -24 -42 -20 -38 5
4 15 2 24 -4 9 -7 13 -9 9 -4 -4 5 2 16 12 25 11 9 35 47 55 84 54 105 47 206
-19 266 -14 14 -26 20 -26 14z"/>
<path d="M1617 1224 c-16 -9 -27 -17 -25 -19 5 -5 108 25 108 31 0 10 -58 2
-83 -12z"/>
<path d="M1101 1064 c0 -11 3 -14 6 -6 3 7 2 16 -1 19 -3 4 -6 -2 -5 -13z"/>
<path d="M1253 1023 c0 -9 4 -10 14 -2 7 6 13 12 13 14 0 1 -6 2 -13 2 -8 0
-14 -6 -14 -14z"/>
<path d="M1135 915 c-68 -67 -76 -79 -75 -112 0 -21 0 -47 0 -57 -1 -26 20
-76 31 -76 5 0 3 10 -5 23 -17 27 -22 55 -12 82 21 61 63 129 104 169 26 25
43 46 40 46 -4 0 -41 -34 -83 -75z"/>
<path d="M1700 929 c0 -5 5 -7 10 -4 6 3 10 8 10 11 0 2 -4 4 -10 4 -5 0 -10
-5 -10 -11z"/>
<path d="M2311 787 c-14 -18 -1 -63 39 -133 16 -29 30 -56 30 -58 0 -2 -24
-13 -52 -23 -42 -14 -82 -18 -193 -17 -119 0 -168 6 -325 36 -422 83 -699 92
-923 31 -32 -9 -56 -18 -53 -20 2 -2 30 3 62 11 97 25 246 39 256 24 6 -10 8
-10 8 1 0 10 3 11 13 2 9 -7 24 -8 48 -1 44 13 52 13 43 -2 -5 -7 -3 -8 6 -3
36 22 223 -1 685 -85 175 -31 292 -25 404 21 34 15 34 15 86 -36 50 -48 155
-115 155 -98 0 4 -20 19 -44 31 -46 25 -155 117 -146 124 3 2 25 19 49 38 47
37 101 112 101 142 0 41 -60 27 -109 -26 -30 -32 -35 -32 -49 -2 -6 14 -21 30
-34 37 -19 10 -17 6 10 -25 17 -20 32 -44 32 -53 0 -12 15 -2 48 30 28 27 57
47 70 47 29 0 28 -4 -9 -62 -31 -47 -97 -108 -118 -108 -14 0 -59 71 -76 121
-12 34 -12 41 1 54 9 8 11 15 6 15 -5 0 -15 -6 -21 -13z"/>
<path d="M1345 680 c-16 -7 -17 -9 -3 -9 9 -1 20 4 23 9 7 11 7 11 -20 0z"/>
<path d="M775 585 c-25 -12 -26 -14 -5 -9 28 7 60 23 45 23 -5 0 -23 -6 -40
-14z"/>
<path d="M750 490 c-26 -26 -26 -81 -2 -103 22 -20 83 -22 100 -5 7 7 12 22
12 35 0 19 -5 23 -30 23 -16 0 -30 -4 -30 -10 0 -5 9 -10 20 -10 28 0 25 -18
-5 -26 -33 -8 -55 11 -55 46 0 39 23 56 56 41 38 -17 49 -13 29 9 -10 11 -31
20 -47 20 -15 0 -37 -9 -48 -20z"/>
<path d="M890 440 l0 -70 50 0 c28 0 50 5 50 10 0 6 -16 10 -35 10 l-35 0 0
60 c0 47 -3 60 -15 60 -12 0 -15 -14 -15 -70z"/>
<path d="M1056 502 c-7 -12 -46 -116 -46 -124 0 -17 28 -7 33 12 7 26 42 26
61 -1 29 -42 34 -13 9 54 -23 60 -43 81 -57 59z m33 -64 c1 -5 -6 -8 -14 -8
-16 0 -19 9 -8 36 6 16 7 16 14 -2 4 -10 8 -22 8 -26z"/>
<path d="M1160 441 c0 -79 19 -100 21 -23 l1 47 16 -47 c8 -27 21 -48 27 -48
6 0 19 21 27 48 l16 47 1 -47 c1 -36 5 -48 16 -48 13 0 15 12 13 68 -3 58 -5
67 -22 67 -14 0 -24 -13 -36 -49 l-16 -48 -15 48 c-9 30 -22 50 -32 52 -15 3
-17 -6 -17 -67z"/>
<path d="M1380 440 l0 -70 48 0 c26 0 53 5 60 12 17 17 15 45 -5 57 -10 6 -12
11 -5 11 19 0 14 38 -7 50 -11 5 -36 10 -55 10 l-36 0 0 -70z m75 30 c0 -8
-10 -16 -22 -18 -18 -3 -23 2 -23 18 0 16 5 21 23 18 12 -2 22 -10 22 -18z
m10 -60 c0 -9 -11 -16 -27 -18 -23 -3 -28 1 -28 18 0 17 5 21 28 18 16 -2 27
-9 27 -18z"/>
<path d="M1520 503 c0 -5 9 -21 20 -38 11 -16 20 -45 20 -62 0 -23 5 -33 15
-33 10 0 15 10 15 27 0 14 11 46 25 70 20 34 23 43 11 43 -9 0 -23 -14 -32
-31 l-16 -31 -19 31 c-17 28 -39 42 -39 24z"/>
<path d="M1717 504 c-4 -4 -7 -36 -7 -71 0 -49 3 -63 15 -63 11 0 15 12 16 48
l1 47 16 -47 c8 -27 21 -48 27 -48 6 0 17 21 25 48 l14 47 4 -47 c5 -74 22
-56 22 23 0 62 -2 70 -17 67 -11 -2 -24 -22 -34 -53 l-16 -50 -14 50 c-14 46
-35 66 -52 49z"/>
<path d="M1915 493 c-33 -83 -43 -123 -30 -123 7 0 17 9 20 20 4 13 15 20 32
20 16 0 27 -7 30 -20 3 -11 12 -20 19 -20 18 0 17 3 -9 75 -23 61 -48 81 -62
48z m35 -50 c0 -7 -7 -13 -16 -13 -11 0 -14 5 -10 16 3 9 6 21 6 27 0 16 20
-14 20 -30z"/>
<path d="M2027 503 c-4 -3 -7 -35 -7 -70 0 -49 3 -63 15 -63 10 0 15 10 15 30
0 27 3 30 30 30 27 0 30 -3 30 -30 0 -20 5 -30 15 -30 12 0 15 14 15 70 0 56
-3 70 -15 70 -10 0 -15 -10 -15 -30 0 -27 -3 -30 -30 -30 -27 0 -30 3 -30 30
0 29 -9 38 -23 23z"/>
<path d="M2205 493 c-33 -83 -43 -123 -30 -123 7 0 17 9 20 20 4 13 15 20 32
20 16 0 27 -7 30 -20 5 -19 33 -29 33 -12 0 4 -10 35 -23 67 -24 61 -49 80
-62 48z m35 -50 c0 -7 -7 -13 -16 -13 -11 0 -14 5 -10 16 3 9 6 21 6 27 0 16
20 -14 20 -30z"/>
</g>
</svg>
